<svg xmlns="http://www.w3.org/2000/svg" viewBox="0 0 420.99 198.35"><defs><style>.cls-1{fill:#fff;}</style></defs><title>Asset 4@2x-8-17abi2</title><g id="Layer_2" data-name="Layer 2"><g id="Layer_2-2" data-name="Layer 2"><path class="cls-1" d="M19.32,123.71c0,1.46.88,3.22.59,4.68-.59,1.17-2.05,2.34-3.22,3.51a4.22,4.22,0,0,1,.87,1.17h-.29c-2.34-.58-4.39.59-6.44,1.47-.29.29-.58.29-1.17.29a25.27,25.27,0,0,1-5-.59,18.74,18.74,0,0,1-3.51-2C.58,131.61.29,131,0,130.73A4.16,4.16,0,0,0,.58,129c-.29-2.35,1.18-2.93,2.64-4.1,3.22-2.34,6.73-2.93,10.83-2.64a6.27,6.27,0,0,1,2.05.88C17,123.41,18.15,123.41,19.32,123.71Zm132.9,14c7.61,25.17-19.32,60.88-66.16,60.59-47.42-.58-66.15-38-53.86-54.74,9.07-12.58,24-6.15,29-3.51a1.29,1.29,0,0,1,.58,2.05c-4.68,7-2.92,30.73,23.72,32.2,46,2.93,47.12-17.86,47.12-17.86,2.35-20.78-88.69-30.15-88.69-30.15-27.52-2.93-54.74-24.59-15.22-75.81C78.16-13.87,125,1.64,125,1.64c17.86,5,32.79,18.44,32.5,53.57,0,21.37-4.69,31.32-9.37,37.76-8.2,11.12-19.91,11.42-27.81,9.66,0,0-16.39-3.51-18.44-21.37a1.64,1.64,0,0,1,2-1.75A17.7,17.7,0,0,0,116.21,78C124.7,73.65,132.6,61.94,132,43.5c0,0,0-2.34-.29-5.56a83.41,83.41,0,0,0-12,1.46C105.09,42,91,48.18,78.45,56.09A176.16,176.16,0,0,0,55.62,74.82a176.93,176.93,0,0,0-8.49,18.74,1.38,1.38,0,0,0,1.17,1.75C64.69,99.41,142.85,106.14,152.22,137.76ZM30.74,133.37a5.07,5.07,0,0,1-7.61-1.17,24.88,24.88,0,0,1,2.92-2.35c1.17-.87,2.34-.58,3.52,0C31.32,130.44,31.91,131.9,30.74,133.37ZM84.3,19.79c13.47-7.32,10-9.66,10-9.66-1.76-2.05-7.32-.29-12,2.34a130.46,130.46,0,0,0-44.21,40.1C59.72,31.5,76.11,24.18,84.3,19.79ZM61.76,63.4C81.08,47.6,106,36.18,131.14,35.3c-.88-5.56-3.22-12.29-8.78-13.17C96,17.15,74.94,41.45,61.76,63.4Zm73.77,131.15A2.75,2.75,0,0,1,132.9,196c-.88-.29-2.05-.29-2.93-.59a3.08,3.08,0,0,1,3.81-4.09A2.2,2.2,0,0,1,135.53,194.55Zm16.1-11.42A6.29,6.29,0,0,1,149,189a27.08,27.08,0,0,1-5,2.64h-.29c-2-.59-4.39-.59-5.27-3.22.58-1.17.88-2.64,1.46-3.51,1.17-1.47,2.64-2.64,3.51-4.1a4.07,4.07,0,0,1,3.81-1.47c1.17.3,2.34.3,3.81.59A12.55,12.55,0,0,1,151.63,183.13Z"/><path class="cls-1" d="M279,196.3a1.29,1.29,0,0,1-1.17,1.76c-6.73.58-31.61,1.46-35.71-15.52-1.46-6.73-2.93-22.83-3.81-42.15-11.71.88-22.83,4.69-33.66,8.49-2.63,17.27-4.1,34.25-3.81,47.72.3.58-.58,1.17-1.17,1.17-6.14-.3-31.32-3.22-33.07-22,0,0-1.18-4.39,2-23.71a90,90,0,0,1,2.93-14.34c-5.27,1.17-8.49,2.05-10.24,2.92-.88,0-1.47-.29-1.47-1.17,0-14.63,7.32-22.24,17.86-26C188.22,77.16,207,26.82,221.88,28c19.61,1.46,36.59,15.22,38.93,36C262,72.19,264,93.56,267,117c6.15,1.47,10.54,2.35,12.29,2.93a.94.94,0,0,1,.88.88c-.29,2.93-1.17,12.59-10.83,16.39C272.52,163.22,276,187.81,279,196.3ZM220.42,42.91c10.83-7.9,7.32-8.78,7.32-8.78-3.22-.88-7.32,1.47-10.84,4.39C204.32,50.23,197.29,75.7,197.29,75.7,202.56,63.11,214.27,47.89,220.42,42.91Zm17.56,94v-.59c-6.15-.87-13.46-1.46-20.49-1.75-3.81-.3-7-.3-10.54-.3-.58,3.52-1.17,7-1.75,10.25C216,141,226.86,137.76,238,136.88ZM223.64,155c1.46,2.63-.59,4.68-1.76,7,0,.3,0,.3-.29.3A18.55,18.55,0,0,1,216,164.4c-2.05,0-4.39-.3-5.86-2.64a11.72,11.72,0,0,1-1.75-3.22,41.3,41.3,0,0,1,2.34-3.8c1.17-1.47,2.34-2.35,3.8-2.05,2.05.58,3.81,0,5.56.29C221.3,153.27,222.47,154.44,223.64,155Zm-12-44.5,13.46.88c3.81,0,7.61.59,11.42.88-1.47-32.2-3.22-63.52-5-65.57C229.2,44.38,219.54,74.53,211.64,110.53Zm20.78,42.16c-.88,0-2,.29-3.22.29s-1.76-.88-2.34-1.76c-.59-1.46.29-2.63,2-3.22C231.54,147.42,233.3,150.05,232.42,152.69Z"/><path class="cls-1" d="M419.18,197.77c-46,1.46-40.11-14.35-41-81.09-3.22,11.71-5.56,22.83-7.61,31.62-2.34,8.78-3.22,14.92-3.8,17.56a2,2,0,0,1-2,2c-17.27,1.75-24.3-6.15-24.3-6.15-8.49-7.61-14.93-28.69-19.9-50.35-1.76,30.15-.88,64.11,7.32,84a1.82,1.82,0,0,1-1.47,2.35c-6.73.87-29.27,2.63-35.71-16.4,0,0-17.86-43.91,7.32-152.51a2.47,2.47,0,0,1,2.34-2c6.44,0,26.64.87,28.69,16.09.87,3.81,3.51,13.76,6.73,25.47,2.93,6.15,7,12,12.29,15.81,5,3.8,10.83,5.85,16.69,7.32,5.56-19.32,13.17-42.45,21.08-57.67.29-1.17,1.46-1.76,2.92-1.76,6.73.59,28.69,4.69,26.06,35.72,0,0-1.76,26.34-1.76,51.22.29,47.72,5.56,69.67,7.9,76.4A1.88,1.88,0,0,1,419.18,197.77ZM307.35,37.94c-2.92.58-5,5.56-6.14,11.12-7.61,31.91-5.56,56.21-5.56,56.21,5.27-32.2,10-43.62,12.58-53C312.33,36.77,307.35,37.94,307.35,37.94Zm56.5,56.49a34.62,34.62,0,0,1-11.42-3.51,33.5,33.5,0,0,1-12.29-7.61c5.27,18.44,11.42,37.47,15.22,43.91C355.36,127.22,358.87,112.88,363.85,94.43Z"/></g></g></svg>