<?xml version="1.0" encoding="utf-8"?>
<!-- Generator: Adobe Illustrator 23.0.5, SVG Export Plug-In . SVG Version: 6.00 Build 0)  -->
<svg width="107px" height="33px" version="1.1" id="Layer_1" xmlns="http://www.w3.org/2000/svg" xmlns:xlink="http://www.w3.org/1999/xlink" x="0px" y="0px"
	 viewBox="0 0 107 33" style="enable-background:new 0 0 107 33;" xml:space="preserve">
<style type="text/css">
	.st0{fill:#FFFFFF;}
	.st1{fill:#FF4C60;}
</style>
<path class="st0" d="M17.7,30.6c-2.7,0-4.9-0.4-6.7-1.1c-1.8-0.8-3.1-1.8-4-3c-0.9-1.2-1.4-2.6-1.5-3.9c0-0.2,0.1-0.4,0.3-0.6
	c0.2-0.2,0.4-0.3,0.6-0.3h5.1c0.4,0,0.7,0.1,0.9,0.2c0.2,0.1,0.4,0.3,0.5,0.5c0.2,0.4,0.5,0.8,0.9,1.2c0.4,0.4,0.9,0.7,1.6,0.9
	c0.6,0.2,1.4,0.3,2.3,0.3c1.6,0,2.7-0.2,3.5-0.7c0.8-0.5,1.2-1.1,1.2-2c0-0.6-0.2-1.1-0.6-1.5c-0.4-0.4-1.1-0.7-2.1-1
	c-1-0.3-2.2-0.6-3.8-0.9c-2-0.4-3.8-1-5.2-1.7c-1.4-0.7-2.5-1.6-3.3-2.7c-0.8-1.1-1.1-2.5-1.1-4.2c0-1.6,0.5-3.1,1.4-4.4
	c0.9-1.3,2.2-2.3,3.9-3c1.7-0.7,3.6-1.1,5.9-1.1c1.9,0,3.5,0.2,4.9,0.7c1.4,0.5,2.6,1.1,3.6,1.9c1,0.8,1.7,1.7,2.2,2.6
	c0.5,0.9,0.8,1.8,0.8,2.6c0,0.2-0.1,0.4-0.2,0.6c-0.1,0.2-0.4,0.3-0.6,0.3h-5.3c-0.3,0-0.6-0.1-0.8-0.2s-0.4-0.3-0.6-0.5
	c-0.2-0.6-0.6-1.1-1.3-1.6c-0.7-0.4-1.6-0.7-2.7-0.7c-1.2,0-2.1,0.2-2.8,0.6c-0.7,0.4-1,1.1-1,1.9c0,0.5,0.2,1,0.5,1.4
	c0.4,0.4,1,0.8,1.8,1c0.8,0.3,2,0.6,3.5,0.9c2.4,0.5,4.4,1,5.9,1.7c1.5,0.7,2.6,1.6,3.3,2.7c0.7,1.1,1.1,2.5,1.1,4.1
	c0,1.8-0.5,3.4-1.6,4.7c-1,1.3-2.5,2.3-4.3,3C22.2,30.3,20.1,30.6,17.7,30.6z"/>
<path class="st0" d="M39.7,30.6c-1.5,0-2.7-0.3-3.9-0.8c-1.1-0.6-2-1.3-2.7-2.2c-0.7-0.9-1-2-1-3.2c0-1.9,0.8-3.4,2.3-4.5
	c1.6-1.1,3.6-1.9,6.2-2.3l5-0.8v-0.6c0-1-0.2-1.7-0.6-2.2c-0.4-0.5-1.1-0.8-2.2-0.8c-0.8,0-1.4,0.1-1.8,0.4
	c-0.5,0.3-0.8,0.7-1.1,1.2c-0.2,0.3-0.6,0.5-1,0.5h-4.5c-0.3,0-0.5-0.1-0.7-0.3s-0.2-0.4-0.2-0.6c0-0.5,0.2-1,0.5-1.7
	c0.4-0.6,0.9-1.3,1.7-1.9c0.8-0.6,1.7-1.1,2.9-1.5c1.2-0.4,2.6-0.6,4.3-0.6c1.7,0,3.2,0.2,4.4,0.6s2.2,1,3,1.7
	c0.8,0.7,1.3,1.6,1.7,2.6c0.4,1,0.5,2.1,0.5,3.2v12.2c0,0.3-0.1,0.5-0.3,0.7c-0.2,0.2-0.4,0.3-0.7,0.3H47c-0.3,0-0.5-0.1-0.7-0.3
	c-0.2-0.2-0.3-0.4-0.3-0.7v-1.4c-0.3,0.5-0.8,1-1.4,1.4c-0.6,0.4-1.3,0.8-2.1,1C41.7,30.5,40.8,30.6,39.7,30.6z M41.6,26.1
	c0.8,0,1.5-0.2,2.1-0.5c0.6-0.3,1.1-0.9,1.5-1.6c0.4-0.7,0.5-1.6,0.5-2.7v-0.6l-3.4,0.6c-1.3,0.2-2.2,0.5-2.8,1
	c-0.6,0.4-0.9,1-0.9,1.6c0,0.5,0.1,0.8,0.4,1.2s0.6,0.6,1.1,0.7C40.6,26,41.1,26.1,41.6,26.1z"/>
<path class="st0" d="M58.2,30.2c-0.3,0-0.5-0.1-0.7-0.3c-0.2-0.2-0.3-0.4-0.3-0.7V10.3c0-0.3,0.1-0.5,0.3-0.7
	c0.2-0.2,0.4-0.3,0.7-0.3h4.4c0.3,0,0.5,0.1,0.7,0.3c0.2,0.2,0.3,0.4,0.3,0.7v1.4c0.5-0.7,1.3-1.4,2.3-1.9c1-0.5,2.1-0.8,3.4-0.9
	c3.1-0.1,5.3,1.1,6.4,3.5c0.6-1,1.5-1.9,2.6-2.5c1.1-0.6,2.4-1,3.8-1c1.4,0,2.7,0.3,3.8,0.9c1.1,0.6,2,1.6,2.7,2.9
	c0.7,1.3,1,3,1,5.1v11.4c0,0.3-0.1,0.5-0.3,0.7c-0.2,0.2-0.4,0.3-0.7,0.3h-4.7c-0.3,0-0.5-0.1-0.7-0.3c-0.2-0.2-0.3-0.4-0.3-0.7
	V18.1c0-0.9-0.1-1.7-0.4-2.2c-0.3-0.5-0.6-0.9-1.1-1.2c-0.5-0.2-1-0.4-1.6-0.4c-0.5,0-1,0.1-1.4,0.4c-0.5,0.2-0.8,0.6-1.1,1.2
	c-0.3,0.6-0.4,1.3-0.4,2.2v11.2c0,0.3-0.1,0.5-0.3,0.7c-0.2,0.2-0.4,0.3-0.7,0.3h-4.7c-0.3,0-0.5-0.1-0.7-0.3
	c-0.2-0.2-0.3-0.4-0.3-0.7V18.1c0-0.9-0.1-1.7-0.4-2.2c-0.3-0.5-0.7-0.9-1.1-1.2c-0.5-0.2-1-0.4-1.5-0.4c-0.5,0-1,0.1-1.5,0.4
	c-0.5,0.2-0.8,0.6-1.1,1.2C64.1,16.4,64,17.1,64,18v11.2c0,0.3-0.1,0.5-0.3,0.7c-0.2,0.2-0.4,0.3-0.7,0.3H58.2z"/>
<path class="st1" d="M95.7,30.4c-0.3,0-0.5-0.1-0.7-0.3c-0.2-0.2-0.3-0.4-0.3-0.7v-5.1c0-0.3,0.1-0.5,0.3-0.7
	c0.2-0.2,0.4-0.3,0.7-0.3h5.1c0.3,0,0.5,0.1,0.7,0.3c0.2,0.2,0.3,0.4,0.3,0.7v5.1c0,0.3-0.1,0.5-0.3,0.7c-0.2,0.2-0.4,0.3-0.7,0.3
	H95.7z"/>
</svg>
