<?xml version="1.0" encoding="utf-8"?>
<!-- Generator: Adobe Illustrator 23.0.5, SVG Export Plug-In . SVG Version: 6.00 Build 0)  -->
<svg width="107px" height="33px" viewBox="0 0 107 33" version="1.1" xmlns="http://www.w3.org/2000/svg" xmlns:xlink="http://www.w3.org/1999/xlink">
<svg version="1.1" id="Layer_1" xmlns="http://www.w3.org/2000/svg" xmlns:xlink="http://www.w3.org/1999/xlink" x="0px" y="0px"
	 viewBox="0 0 107 33" style="enable-background:new 0 0 107 33;" xml:space="preserve">
<style type="text/css">
	.st0{fill:#FFFFFF;}
	.st1{fill:#FF4C60;}
</style>
<title>Bolby</title>
<desc>Created with Sketch.</desc>
<g id="Symbols">
	<g id="header" transform="translate(-42.000000, -61.000000)">
		<g id="Bolby.">
			<g transform="translate(42.448000, 61.440000)">
				<g>
					<path class="st0" d="M13.5,31.5c-2.8,0-5.1-0.4-7-1.2s-3.3-1.9-4.2-3.2s-1.5-2.7-1.5-4.2c0-0.2,0.1-0.5,0.2-0.6
						C1.1,22.1,1.3,22,1.5,22h5.4c0.4,0,0.7,0.1,0.9,0.2c0.2,0.1,0.4,0.4,0.6,0.6c0.2,0.5,0.6,0.8,0.9,1.3c0.5,0.4,0.9,0.7,1.6,0.9
						c0.7,0.2,1.5,0.4,2.5,0.4c1.6,0,2.9-0.2,3.7-0.8c0.8-0.5,1.3-1.2,1.3-2.1c0-0.7-0.2-1.2-0.7-1.5s-1.2-0.7-2.2-1.1
						s-2.3-0.7-4-1.1c-2.1-0.5-4-1.1-5.5-1.8c-1.5-0.7-2.7-1.6-3.5-2.8s-1.2-2.7-1.2-4.4s0.5-3.3,1.5-4.7C3.9,3.7,5.3,2.7,7,2
						c1.8-0.8,3.9-1.2,6.2-1.2c2,0,3.6,0.2,5.1,0.8c1.5,0.5,2.7,1.2,3.7,2c1.1,0.8,1.8,1.8,2.3,2.7c0.5,0.9,0.8,1.9,0.8,2.8
						c0,0.2-0.1,0.5-0.2,0.6c-0.1,0.2-0.4,0.2-0.7,0.2h-5.6c-0.4,0-0.6,0-0.8-0.1c-0.2-0.1-0.5-0.4-0.6-0.6
						c-0.1-0.6-0.6-1.2-1.3-1.6c-0.7-0.5-1.6-0.7-2.8-0.7c-1.3,0-2.2,0.2-2.9,0.7C9.6,8.1,9.2,8.8,9.2,9.7c0,0.6,0.2,1.1,0.6,1.5
						c0.4,0.5,1.1,0.8,1.9,1.1c0.9,0.4,2.1,0.6,3.6,0.9c2.6,0.5,4.7,1.1,6.2,1.8c1.5,0.7,2.8,1.6,3.5,2.8c0.7,1.2,1.2,2.6,1.2,4.3
						c0,1.9-0.6,3.6-1.6,4.9c-1.1,1.4-2.6,2.5-4.6,3.2C18.1,31.1,15.9,31.5,13.5,31.5z"/>
					<path class="st0" d="M36.6,31.5c-1.5,0-2.9-0.2-4.1-0.8c-1.2-0.6-2.1-1.4-2.9-2.3c-0.7-0.9-1.1-2.1-1.1-3.4
						c0-2,0.8-3.6,2.5-4.8s3.9-2,6.6-2.5l5.3-0.8v-0.6c0-1.1-0.2-1.8-0.6-2.3c-0.5-0.6-1.2-0.8-2.3-0.8c-0.8,0-1.4,0.1-2,0.5
						c-0.5,0.4-0.9,0.7-1.2,1.3c-0.2,0.4-0.6,0.6-1.1,0.6h-4.8c-0.4,0-0.6-0.1-0.7-0.2C30.1,15,30,14.8,30,14.5
						c0-0.5,0.2-1.1,0.6-1.8c0.4-0.7,0.9-1.3,1.8-2c0.8-0.7,1.8-1.2,3-1.6c1.3-0.5,2.8-0.6,4.6-0.6s3.4,0.2,4.7,0.6
						c1.3,0.5,2.3,1.1,3.2,1.8c0.8,0.8,1.4,1.6,1.8,2.7c0.4,1.1,0.6,2.2,0.6,3.4v12.9c0,0.2-0.1,0.6-0.4,0.7
						c-0.2,0.1-0.5,0.4-0.7,0.4h-4.7c-0.4,0-0.6-0.1-0.8-0.4c-0.2-0.2-0.4-0.5-0.4-0.7v-1.5c-0.4,0.6-0.8,1.1-1.5,1.5
						c-0.6,0.5-1.4,0.8-2.2,1.1C38.7,31.3,37.8,31.5,36.6,31.5z M38.6,26.5c0.8,0,1.5-0.2,2.2-0.6c0.7-0.4,1.2-0.9,1.5-1.6
						s0.6-1.6,0.6-2.8v-0.6l-3.6,0.6c-1.3,0.2-2.3,0.6-2.9,1.1c-0.6,0.5-0.9,1.1-0.9,1.6c0,0.5,0.1,0.9,0.5,1.3
						c0.2,0.4,0.7,0.6,1.2,0.8C37.6,26.5,38.1,26.5,38.6,26.5z"/>
					<path class="st0" d="M56.2,31c-0.4,0-0.6-0.1-0.8-0.4c-0.2-0.2-0.4-0.5-0.4-0.7v-20c0-0.4,0.1-0.6,0.4-0.8
						c0.2-0.2,0.5-0.4,0.8-0.4h4.7c0.4,0,0.6,0.1,0.8,0.4c0.1,0.4,0.2,0.6,0.2,0.8v1.4c0.6-0.8,1.4-1.4,2.3-2
						c1.1-0.6,2.2-0.9,3.6-0.9c3.3-0.1,5.5,1.2,6.8,3.6c0.7-1.1,1.5-2,2.8-2.7c1.3-0.7,2.6-1.1,4-1.1c1.5,0,2.8,0.4,4,1.1
						s2.1,1.6,2.8,3c0.7,1.4,1.1,3.2,1.1,5.4v12.1c0,0.2-0.1,0.6-0.4,0.7c-0.2,0.2-0.5,0.4-0.8,0.4h-4.9c-0.4,0-0.6-0.1-0.8-0.4
						c-0.2-0.2-0.4-0.5-0.4-0.7V18.1c0-0.9-0.1-1.8-0.5-2.3c-0.2-0.6-0.7-1.1-1.2-1.3c-0.5-0.2-1.1-0.4-1.6-0.4
						c-0.5,0-1.1,0.1-1.5,0.4c-0.5,0.2-0.9,0.7-1.2,1.3c-0.4,0.6-0.5,1.4-0.5,2.3v11.8c0,0.2-0.1,0.6-0.4,0.7
						C75,30.9,74.8,31,74.4,31h-4.9c-0.4,0-0.6-0.1-0.8-0.4c-0.2-0.2-0.4-0.5-0.4-0.7V18.1c0-0.9-0.1-1.8-0.5-2.3
						c-0.4-0.6-0.7-1.1-1.2-1.3c-0.5-0.2-1.1-0.4-1.5-0.4c-0.6,0-1.1,0.1-1.5,0.4c-0.5,0.2-0.9,0.7-1.2,1.3
						c-0.4,0.6-0.5,1.4-0.5,2.3v11.8c0,0.2-0.1,0.6-0.4,0.7C61.4,30.9,61.2,31,61,31H56.2z"/>
				</g>
				<path class="st1" d="M99.4,31c0.4,0,0.6-0.1,0.7-0.4c0.2-0.2,0.4-0.5,0.4-0.7l0,0v-5.6c0-0.4-0.1-0.6-0.4-0.8
					c-0.2-0.2-0.4-0.2-0.7-0.2l0,0h-5.6c-0.4,0-0.6,0.1-0.8,0.4s-0.4,0.5-0.4,0.8l0,0v5.6c0,0.4,0.1,0.6,0.4,0.7
					c0.2,0.2,0.5,0.4,0.8,0.4l0,0h5.6V31z"/>
			</g>
		</g>
	</g>
</g>
</svg>
