<?xml version="1.0" encoding="utf-8"?>
<!-- Generator: Adobe Illustrator 23.0.5, SVG Export Plug-In . SVG Version: 6.00 Build 0)  -->
<svg version="1.1" id="Layer_1" xmlns="http://www.w3.org/2000/svg" xmlns:xlink="http://www.w3.org/1999/xlink" x="0px" y="0px"
	 viewBox="0 0 107 33" style="enable-background:new 0 0 107 33;" xml:space="preserve">
<style type="text/css">
	.st0{fill:#FF4C60;}
	.st1{fill:#FFFFFF;}
</style>
<title>Bolby</title>
<desc>Created with Sketch.</desc>
<g id="Symbols">
	<g id="header" transform="translate(-42.000000, -61.000000)">
		<g id="Bolby.">
			<g transform="translate(42.448000, 61.440000)">
				<path class="st0" d="M99.4,31c0.4,0,0.6-0.1,0.7-0.4c0.2-0.2,0.4-0.5,0.4-0.7l0,0v-5.6c0-0.4-0.1-0.6-0.4-0.8
					c-0.2-0.2-0.4-0.2-0.7-0.2l0,0h-5.6c-0.4,0-0.6,0.1-0.8,0.4s-0.4,0.5-0.4,0.8l0,0v5.6c0,0.4,0.1,0.6,0.4,0.7
					c0.2,0.2,0.5,0.4,0.8,0.4l0,0h5.6V31z"/>
				<g>
					<path class="st1" d="M22.6,31.5c-2.4,0-4.4-0.3-6-1s-2.8-1.6-3.6-2.7c-0.8-1.1-1.2-2.3-1.3-3.5c0-0.2,0.1-0.4,0.2-0.5
						c0.2-0.2,0.3-0.2,0.6-0.2h4.5c0.3,0,0.6,0.1,0.8,0.2c0.2,0.1,0.3,0.3,0.5,0.5c0.2,0.4,0.5,0.7,0.8,1c0.3,0.3,0.8,0.6,1.4,0.8
						c0.6,0.2,1.3,0.3,2.1,0.3c1.4,0,2.4-0.2,3.1-0.6c0.7-0.4,1.1-1,1.1-1.8c0-0.6-0.2-1-0.6-1.3c-0.4-0.3-1-0.6-1.9-0.9
						c-0.9-0.3-2-0.6-3.4-0.8c-1.8-0.4-3.4-0.9-4.7-1.5c-1.3-0.6-2.3-1.4-2.9-2.4c-0.7-1-1-2.2-1-3.7c0-1.5,0.4-2.8,1.2-3.9
						c0.8-1.2,2-2.1,3.5-2.7c1.5-0.6,3.3-1,5.3-1c1.7,0,3.1,0.2,4.4,0.6c1.3,0.4,2.3,1,3.2,1.7s1.5,1.5,2,2.3
						c0.4,0.8,0.7,1.6,0.7,2.4c0,0.2-0.1,0.4-0.2,0.5c-0.1,0.2-0.3,0.2-0.6,0.2h-4.8c-0.3,0-0.5,0-0.7-0.1c-0.2-0.1-0.4-0.3-0.5-0.5
						c-0.1-0.5-0.5-1-1.1-1.4c-0.6-0.4-1.4-0.6-2.4-0.6c-1.1,0-1.9,0.2-2.5,0.6s-0.9,0.9-0.9,1.7c0,0.5,0.2,0.9,0.5,1.3
						c0.3,0.4,0.9,0.7,1.6,0.9c0.8,0.3,1.8,0.5,3.1,0.8c2.2,0.4,3.9,0.9,5.3,1.5c1.3,0.6,2.3,1.4,3,2.4s1,2.2,1,3.7
						c0,1.6-0.5,3-1.4,4.2c-0.9,1.2-2.2,2.1-3.8,2.7S24.8,31.5,22.6,31.5z"/>
					<path class="st1" d="M42.3,31.5c-1.3,0-2.5-0.2-3.5-0.7c-1-0.5-1.8-1.2-2.4-2c-0.6-0.8-0.9-1.8-0.9-2.8c0-1.7,0.7-3.1,2.1-4
						c1.4-1,3.2-1.7,5.5-2l4.5-0.7v-0.5c0-0.9-0.2-1.5-0.5-2c-0.4-0.5-1-0.7-2-0.7c-0.7,0-1.2,0.1-1.6,0.4c-0.4,0.3-0.8,0.6-1,1.1
						c-0.2,0.3-0.5,0.5-0.9,0.5h-4c-0.3,0-0.5-0.1-0.6-0.2s-0.2-0.3-0.2-0.6c0-0.4,0.2-0.9,0.5-1.5c0.3-0.6,0.8-1.1,1.5-1.7
						c0.7-0.6,1.5-1,2.6-1.4c1.1-0.4,2.3-0.5,3.9-0.5c1.5,0,2.9,0.2,4,0.5c1.1,0.4,2,0.9,2.7,1.5c0.7,0.6,1.2,1.4,1.5,2.3
						c0.3,0.9,0.5,1.8,0.5,2.9v10.9c0,0.2-0.1,0.4-0.3,0.6c-0.2,0.2-0.4,0.3-0.6,0.3h-4.2c-0.3,0-0.5-0.1-0.6-0.3
						c-0.2-0.2-0.3-0.4-0.3-0.6V29c-0.3,0.5-0.7,0.9-1.3,1.3s-1.1,0.7-1.9,0.9C44.1,31.4,43.3,31.5,42.3,31.5z M44,27.4
						c0.7,0,1.3-0.1,1.9-0.5c0.6-0.3,1-0.8,1.3-1.4c0.3-0.6,0.5-1.4,0.5-2.4v-0.5l-3.1,0.5c-1.1,0.2-1.9,0.5-2.5,0.9
						c-0.5,0.4-0.8,0.9-0.8,1.4c0,0.4,0.1,0.8,0.4,1c0.2,0.3,0.6,0.5,1,0.7S43.6,27.4,44,27.4z"/>
					<path class="st1" d="M58.8,31.1c-0.3,0-0.5-0.1-0.6-0.3c-0.2-0.2-0.3-0.4-0.3-0.6V13.3c0-0.3,0.1-0.5,0.3-0.6s0.4-0.3,0.6-0.3
						h3.9c0.3,0,0.5,0.1,0.6,0.3s0.3,0.4,0.3,0.6v1.2c0.5-0.6,1.2-1.2,2-1.7c0.9-0.5,1.9-0.8,3.1-0.8c2.8-0.1,4.7,1,5.7,3.1
						c0.6-0.9,1.3-1.7,2.4-2.2c1-0.6,2.1-0.9,3.4-0.9c1.2,0,2.4,0.3,3.4,0.8c1,0.6,1.8,1.4,2.4,2.6s0.9,2.7,0.9,4.5v10.2
						c0,0.2-0.1,0.4-0.3,0.6c-0.2,0.2-0.4,0.3-0.6,0.3h-4.2c-0.3,0-0.5-0.1-0.7-0.3c-0.2-0.2-0.3-0.4-0.3-0.6v-10
						c0-0.8-0.1-1.5-0.4-2c-0.2-0.5-0.6-0.8-1-1.1c-0.4-0.2-0.9-0.3-1.4-0.3c-0.4,0-0.9,0.1-1.3,0.3c-0.4,0.2-0.8,0.6-1,1.1
						c-0.3,0.5-0.4,1.2-0.4,2v10c0,0.2-0.1,0.4-0.3,0.6c-0.2,0.2-0.4,0.3-0.6,0.3h-4.2c-0.3,0-0.5-0.1-0.6-0.3
						c-0.2-0.2-0.3-0.4-0.3-0.6v-10c0-0.8-0.1-1.5-0.4-2c-0.3-0.5-0.6-0.8-1-1.1c-0.4-0.2-0.9-0.3-1.3-0.3c-0.5,0-0.9,0.1-1.3,0.3
						c-0.4,0.2-0.8,0.6-1,1.1c-0.3,0.5-0.4,1.1-0.4,2v10c0,0.2-0.1,0.4-0.3,0.6c-0.2,0.2-0.4,0.3-0.6,0.3H58.8z"/>
				</g>
			</g>
		</g>
	</g>
</g>
</svg>
